<!DOCTYPE svg PUBLIC "-//W3C//DTD SVG 1.1//EN" "http://www.w3.org/Graphics/SVG/1.1/DTD/svg11.dtd">
<!-- Uploaded to: SVG Repo, www.svgrepo.com, Transformed by: SVG Repo Mixer Tools -->
<svg version="1.1" id="Layer_1" xmlns="http://www.w3.org/2000/svg" xmlns:xlink="http://www.w3.org/1999/xlink" viewBox="0 0 512 512" xml:space="preserve" width="800px" height="800px" fill="#000000">
<g id="SVGRepo_bgCarrier" stroke-width="0"/>
<g id="SVGRepo_tracerCarrier" stroke-linecap="round" stroke-linejoin="round"/>
<g id="SVGRepo_iconCarrier"> <path style="fill:#EE3840;" d="M411.644,186.252h-23.704V99.378c0-41.727-33.948-75.674-75.675-75.674s-75.674,33.947-75.674,75.674 v86.875h-23.704V99.378C212.888,44.582,257.468,0,312.265,0s99.379,44.581,99.379,99.378V186.252z"/> <path style="fill:#FF8C00;" d="M299.111,186.252h-23.704V99.378c0-41.727-33.947-75.674-75.674-75.674s-75.675,33.947-75.675,75.674 v86.875h-23.704V99.378C100.356,44.581,144.936,0,199.733,0c54.796,0,99.378,44.581,99.378,99.378V186.252z"/> <polygon style="fill:#FF9E24;" points="481.067,149.393 424.8,149.393 377.393,330.696 424.8,512 481.067,512 "/> <polygon style="fill:#FF8C00;" points="368.533,149.393 321.126,330.696 368.533,512 424.8,512 424.8,149.393 "/> <rect x="30.933" y="149.393" style="fill:#FFB14D;" width="337.6" height="362.607"/> </g>
</svg>